# XSI Wavefront OBJ Export v3.0
# File Created: Mon Apr 09 11:50:52 2007
# XSI Version: 5.11.2006.0529
mtllib map_ground_home.mtl

o ground_home
# Hierarchy (from self to top father)
g ground_home

#begin 28 vertices
v -0.418585 1.225733 0.425642
v -0.917185 0.742989 0.104681
v -0.104681 0.742989 0.917185
v 0.418585 1.225733 -0.425642
v 0.917185 0.742989 -0.104681
v 0.104681 0.742989 -0.917185
v 0.072318 0.789196 -0.633628
v -0.633628 0.789196 0.072318
v -0.072318 0.789196 0.633628
v -0.430410 0.498552 0.275535
v -0.275535 0.498552 0.430410
v 0.633628 0.789196 -0.072318
v -0.449911 0.498552 0.295037
v -0.295037 0.498552 0.449911
v -0.295037 0.110289 0.449911
v -0.430410 0.109800 0.275535
v -0.449911 0.109276 0.295037
v 0.072318 0.109913 -0.633628
v -1.000000 0.150000 1.000000
v 1.000000 0.150000 1.000000
v 0.425642 1.225733 -0.418585
v -0.072318 0.110053 0.633628
v -0.275535 0.110780 0.430410
v 1.000000 0.150000 -1.000000
v -0.425642 1.225733 0.418585
v -0.633628 0.108050 0.072318
v -0.999999 0.150000 -1.000000
v 0.633628 0.108049 -0.072318
#end 28 vertices

#begin 80 normals
vn -0.684321 0.251815 0.684321
vn -0.684321 0.251815 0.684321
vn -0.684321 0.251815 0.684321
vn 0.000000 1.000000 0.000000
vn 0.457207 0.762840 0.457207
vn 0.457207 0.762840 0.457207
vn 0.457207 0.762840 0.457207
vn 0.178023 -0.967789 0.178023
vn 0.178023 -0.967789 0.178023
vn 0.178023 -0.967789 0.178023
vn 0.178023 -0.967789 0.178023
vn 0.684321 0.251815 -0.684321
vn 0.684321 0.251815 -0.684321
vn 0.684321 0.251815 -0.684321
vn 0.143229 -0.979271 -0.143229
vn 0.143229 -0.979271 -0.143229
vn 0.143229 -0.979271 -0.143229
vn 0.143229 -0.979271 -0.143229
vn -0.707107 0.000000 0.707107
vn -0.707107 0.000000 0.707107
vn -0.707107 0.000000 0.707107
vn -0.707107 0.000000 0.707107
vn -0.178023 -0.967789 -0.178023
vn -0.178023 -0.967789 -0.178023
vn -0.178023 -0.967789 -0.178023
vn -0.178023 -0.967789 -0.178023
vn -0.143229 -0.979271 0.143229
vn -0.143229 -0.979271 0.143229
vn -0.143229 -0.979271 0.143229
vn -0.143229 -0.979271 0.143229
vn 0.000000 1.000000 0.000000
vn 0.000000 1.000000 0.000000
vn 0.000000 1.000000 0.000000
vn 0.000000 1.000000 0.000000
vn 0.000000 1.000000 0.000000
vn -0.457207 0.762840 -0.457207
vn -0.457207 0.762840 -0.457207
vn -0.457207 0.762840 -0.457207
vn -0.707107 -0.000000 0.707107
vn -0.684321 0.251815 0.684321
vn -0.707107 -0.000000 0.707107
vn -0.707107 -0.000000 0.707107
vn -0.707107 -0.000000 0.707107
vn 0.000000 1.000000 0.000000
vn 0.457207 0.762840 0.457207
vn 0.707107 0.000000 0.707107
vn 0.000000 1.000000 0.000000
vn 0.707107 0.000000 0.707107
vn 0.707107 0.000000 0.707107
vn 0.707107 0.000000 0.707107
vn -0.707107 0.000000 0.707107
vn -0.707107 0.000000 0.707107
vn -0.707107 0.000000 0.707107
vn -0.707107 0.000000 0.707107
vn 0.000000 1.000000 0.000000
vn 0.707107 0.000000 -0.707107
vn 0.707107 0.000000 -0.707107
vn 0.707107 0.000000 -0.707107
vn 0.707107 0.000000 -0.707107
vn -0.707107 0.000000 0.707107
vn -0.707107 0.000000 0.707107
vn -0.707107 0.000000 0.707107
vn -0.707107 0.000000 0.707107
vn -0.707107 0.000000 -0.707107
vn -0.707107 0.000000 -0.707107
vn -0.707107 0.000000 -0.707107
vn -0.707107 0.000000 -0.707107
vn 0.707107 0.000000 0.707107
vn 0.707107 0.000000 0.707107
vn 0.707107 0.000000 0.707107
vn 0.707107 0.000000 0.707107
vn -0.457207 0.762840 -0.457207
vn -0.707107 0.000000 -0.707107
vn 0.000000 1.000000 0.000000
vn -0.707107 0.000000 -0.707107
vn -0.707107 0.000000 -0.707107
vn -0.707107 0.000000 -0.707107
vn 0.000000 1.000000 0.000000
vn 0.684321 0.251815 -0.684321
vn 0.000000 1.000000 0.000000
#end 80 vertex normals

#begin 20 faces
usemtl Polygon_XSIPOLYCLS.scene_material2
f 1//1 25//40 2//2 3//3 
usemtl Polygon_XSIPOLYCLS.scene_material2
f 1//5 3//6 5//7 21//45 
usemtl Polygon_XSIPOLYCLS.scene_material2
f 2//8 6//9 7//10 8//11 
usemtl Polygon_XSIPOLYCLS.scene_material2
f 4//12 21//79 5//13 6//14 
usemtl Polygon_XSIPOLYCLS.scene_material2
f 3//15 2//16 8//17 9//18 
usemtl Polygon_XSIPOLYCLS.scene_material2
f 10//19 11//20 9//21 8//22 
usemtl Polygon_XSIPOLYCLS.scene_material2
f 5//23 3//24 9//25 12//26 
usemtl Polygon_XSIPOLYCLS.scene_material2
f 6//27 5//28 12//29 7//30 
usemtl Polygon_XSIPOLYCLS.scene_material2
f 13//31 14//32 11//33 10//34 
usemtl Polygon_XSIPOLYCLS.scene_material2
f 4//36 6//37 2//38 25//72 
usemtl Polygon_XSIPOLYCLS.scene_material2
f 15//39 14//41 13//42 17//43 
usemtl Polygon_XSIPOLYCLS.scene_material2
f 28//46 12//48 9//49 22//50 
usemtl Polygon_XSIPOLYCLS.scene_material2
f 22//51 9//52 11//53 23//54 
usemtl Polygon_XSIPOLYCLS.scene_material2
f 7//56 12//57 28//58 18//59 
usemtl Polygon_XSIPOLYCLS.scene_material2
f 16//60 10//61 8//62 26//63 
usemtl Polygon_XSIPOLYCLS.scene_material2
f 17//64 13//65 10//66 16//67 
usemtl Polygon_XSIPOLYCLS.scene_material2
f 23//68 11//69 14//70 15//71 
usemtl Polygon_XSIPOLYCLS.scene_material2
f 26//73 8//75 7//76 18//77 
usemtl Polygon_XSIPOLYCLS.scene_material2
f 4//80 25//74 1//35 21//4 
usemtl scene_material
f 24//78 27//55 19//47 20//44 
#end 20 faces
